<svg width="196" height="37" viewBox="0 0 196 37" fill="none" xmlns="http://www.w3.org/2000/svg">
<path d="M12.3409 13.642L9.01705 13.8466C8.96023 13.5625 8.83807 13.3068 8.65057 13.0795C8.46307 12.8466 8.21591 12.6619 7.90909 12.5256C7.60795 12.3835 7.24716 12.3125 6.8267 12.3125C6.2642 12.3125 5.78977 12.4318 5.40341 12.6705C5.01705 12.9034 4.82386 13.2159 4.82386 13.608C4.82386 13.9205 4.94886 14.1847 5.19886 14.4006C5.44886 14.6165 5.87784 14.7898 6.4858 14.9205L8.85511 15.3977C10.1278 15.6591 11.0767 16.0795 11.7017 16.6591C12.3267 17.2386 12.6392 18 12.6392 18.9432C12.6392 19.8011 12.3864 20.554 11.8807 21.2017C11.3807 21.8494 10.6932 22.3551 9.81818 22.7188C8.94886 23.0767 7.94602 23.2557 6.80966 23.2557C5.0767 23.2557 3.69602 22.8949 2.66761 22.1733C1.64489 21.446 1.04545 20.4574 0.869318 19.2074L4.44034 19.0199C4.5483 19.5483 4.80966 19.9517 5.22443 20.2301C5.6392 20.5028 6.17045 20.6392 6.81818 20.6392C7.45455 20.6392 7.96591 20.517 8.35227 20.2727C8.74432 20.0227 8.94318 19.7017 8.94886 19.3097C8.94318 18.9801 8.80398 18.7102 8.53125 18.5C8.25852 18.2841 7.83807 18.1193 7.26989 18.0057L5.00284 17.554C3.72443 17.2983 2.77273 16.8551 2.14773 16.2244C1.52841 15.5937 1.21875 14.7898 1.21875 13.8125C1.21875 12.9716 1.44602 12.2472 1.90057 11.6392C2.3608 11.0312 3.00568 10.5625 3.83523 10.233C4.67045 9.90341 5.64773 9.73864 6.76705 9.73864C8.42045 9.73864 9.72159 10.0881 10.6705 10.7869C11.625 11.4858 12.1818 12.4375 12.3409 13.642ZM20.8402 23.2557C19.5163 23.2557 18.3714 22.9744 17.4055 22.4119C16.4453 21.8437 15.7038 21.054 15.1811 20.0426C14.6584 19.0256 14.397 17.8466 14.397 16.5057C14.397 15.1534 14.6584 13.9716 15.1811 12.9602C15.7038 11.9432 16.4453 11.1534 17.4055 10.5909C18.3714 10.0227 19.5163 9.73864 20.8402 9.73864C22.1641 9.73864 23.3061 10.0227 24.2663 10.5909C25.2322 11.1534 25.9766 11.9432 26.4993 12.9602C27.022 13.9716 27.2834 15.1534 27.2834 16.5057C27.2834 17.8466 27.022 19.0256 26.4993 20.0426C25.9766 21.054 25.2322 21.8437 24.2663 22.4119C23.3061 22.9744 22.1641 23.2557 20.8402 23.2557ZM20.8572 20.4432C21.4595 20.4432 21.9624 20.2727 22.3658 19.9318C22.7692 19.5852 23.0732 19.1136 23.2777 18.517C23.4879 17.9205 23.593 17.2415 23.593 16.4801C23.593 15.7188 23.4879 15.0398 23.2777 14.4432C23.0732 13.8466 22.7692 13.375 22.3658 13.0284C21.9624 12.6818 21.4595 12.5085 20.8572 12.5085C20.2493 12.5085 19.7379 12.6818 19.3232 13.0284C18.9141 13.375 18.6044 13.8466 18.3942 14.4432C18.1896 15.0398 18.0874 15.7188 18.0874 16.4801C18.0874 17.2415 18.1896 17.9205 18.3942 18.517C18.6044 19.1136 18.9141 19.5852 19.3232 19.9318C19.7379 20.2727 20.2493 20.4432 20.8572 20.4432ZM35.5589 23.2557C34.218 23.2557 33.0646 22.9716 32.0987 22.4034C31.1385 21.8295 30.3999 21.0341 29.8828 20.017C29.3714 19 29.1158 17.8295 29.1158 16.5057C29.1158 15.1648 29.3743 13.9886 29.8913 12.9773C30.4141 11.9602 31.1555 11.1676 32.1158 10.5994C33.076 10.0256 34.218 9.73864 35.5419 9.73864C36.6839 9.73864 37.6839 9.94602 38.5419 10.3608C39.3999 10.7756 40.0788 11.358 40.5788 12.108C41.0788 12.858 41.3544 13.7386 41.4055 14.75H37.9794C37.8828 14.0966 37.6271 13.571 37.2124 13.1733C36.8033 12.7699 36.2663 12.5682 35.6016 12.5682C35.0391 12.5682 34.5476 12.7216 34.1271 13.0284C33.7124 13.3295 33.3885 13.7699 33.1555 14.3494C32.9226 14.929 32.8061 15.6307 32.8061 16.4545C32.8061 17.2898 32.9197 18 33.147 18.5852C33.38 19.1705 33.7067 19.6165 34.1271 19.9233C34.5476 20.2301 35.0391 20.3835 35.6016 20.3835C36.0163 20.3835 36.3885 20.2983 36.718 20.1278C37.0533 19.9574 37.3288 19.7102 37.5447 19.3864C37.7663 19.0568 37.9112 18.6619 37.9794 18.2017H41.4055C41.3487 19.2017 41.076 20.0824 40.5874 20.8438C40.1044 21.5994 39.4368 22.1903 38.5845 22.6165C37.7322 23.0426 36.7237 23.2557 35.5589 23.2557ZM43.7301 23V9.90909H47.3608V23H43.7301ZM45.554 8.22159C45.0142 8.22159 44.5511 8.04261 44.1648 7.68466C43.7841 7.32102 43.5938 6.88636 43.5938 6.38068C43.5938 5.88068 43.7841 5.4517 44.1648 5.09375C44.5511 4.73011 45.0142 4.54829 45.554 4.54829C46.0938 4.54829 46.554 4.73011 46.9347 5.09375C47.321 5.4517 47.5142 5.88068 47.5142 6.38068C47.5142 6.88636 47.321 7.32102 46.9347 7.68466C46.554 8.04261 46.0938 8.22159 45.554 8.22159ZM54.0021 23.2472C53.1669 23.2472 52.4226 23.1023 51.7692 22.8125C51.1158 22.517 50.5987 22.0824 50.218 21.5085C49.843 20.929 49.6555 20.2074 49.6555 19.3438C49.6555 18.6165 49.7891 18.0057 50.0561 17.5114C50.3232 17.017 50.6868 16.6193 51.147 16.3182C51.6072 16.017 52.13 15.7898 52.7152 15.6364C53.3061 15.483 53.9254 15.375 54.5732 15.3125C55.3345 15.233 55.9482 15.1591 56.4141 15.0909C56.88 15.017 57.218 14.9091 57.4283 14.767C57.6385 14.625 57.7436 14.4148 57.7436 14.1364V14.0852C57.7436 13.5455 57.5732 13.1278 57.2322 12.8324C56.897 12.5369 56.4197 12.3892 55.8004 12.3892C55.147 12.3892 54.6271 12.5341 54.2408 12.8239C53.8544 13.108 53.5987 13.4659 53.4737 13.8977L50.1158 13.625C50.2862 12.8295 50.6214 12.142 51.1214 11.5625C51.6214 10.9773 52.2663 10.5284 53.0561 10.2159C53.8516 9.89773 54.772 9.73864 55.8175 9.73864C56.5447 9.73864 57.2408 9.82386 57.9055 9.99432C58.576 10.1648 59.1697 10.429 59.6868 10.7869C60.2095 11.1449 60.6214 11.6051 60.9226 12.1676C61.2237 12.7244 61.3743 13.392 61.3743 14.1705V23H57.9311V21.1847H57.8288C57.6186 21.5938 57.3374 21.9545 56.9851 22.267C56.6328 22.5739 56.2095 22.8153 55.7152 22.9915C55.2209 23.1619 54.6499 23.2472 54.0021 23.2472ZM55.0419 20.7415C55.576 20.7415 56.0476 20.6364 56.4567 20.4261C56.8658 20.2102 57.1868 19.9205 57.4197 19.5568C57.6527 19.1932 57.7692 18.7812 57.7692 18.321V16.9318C57.6555 17.0057 57.4993 17.0739 57.3004 17.1364C57.1072 17.1932 56.8885 17.2472 56.6442 17.2983C56.3999 17.3437 56.1555 17.3864 55.9112 17.4261C55.6669 17.4602 55.4453 17.4915 55.2464 17.5199C54.8203 17.5824 54.4482 17.6818 54.13 17.8182C53.8118 17.9545 53.5646 18.1392 53.3885 18.3722C53.2124 18.5994 53.1243 18.8835 53.1243 19.2244C53.1243 19.7188 53.3033 20.0966 53.6612 20.358C54.0249 20.6136 54.4851 20.7415 55.0419 20.7415ZM67.8217 5.54545V23H64.1911V5.54545H67.8217Z" fill="white"/>
<path d="M70.7983 23V5.54545H74.4886V19.9574H81.9716V23H70.7983ZM100.794 13.642L97.4702 13.8466C97.4134 13.5625 97.2912 13.3068 97.1037 13.0795C96.9162 12.8466 96.669 12.6619 96.3622 12.5256C96.0611 12.3835 95.7003 12.3125 95.2798 12.3125C94.7173 12.3125 94.2429 12.4318 93.8565 12.6705C93.4702 12.9034 93.277 13.2159 93.277 13.608C93.277 13.9205 93.402 14.1847 93.652 14.4006C93.902 14.6165 94.331 14.7898 94.9389 14.9205L97.3082 15.3977C98.581 15.6591 99.5298 16.0795 100.155 16.6591C100.78 17.2386 101.092 18 101.092 18.9432C101.092 19.8011 100.839 20.554 100.334 21.2017C99.8338 21.8494 99.1463 22.3551 98.2713 22.7188C97.402 23.0767 96.3991 23.2557 95.2628 23.2557C93.5298 23.2557 92.1491 22.8949 91.1207 22.1733C90.098 21.446 89.4986 20.4574 89.3224 19.2074L92.8935 19.0199C93.0014 19.5483 93.2628 19.9517 93.6776 20.2301C94.0923 20.5028 94.6236 20.6392 95.2713 20.6392C95.9077 20.6392 96.419 20.517 96.8054 20.2727C97.1974 20.0227 97.3963 19.7017 97.402 19.3097C97.3963 18.9801 97.2571 18.7102 96.9844 18.5C96.7116 18.2841 96.2912 18.1193 95.723 18.0057L93.456 17.554C92.1776 17.2983 91.2259 16.8551 90.6009 16.2244C89.9815 15.5937 89.6719 14.7898 89.6719 13.8125C89.6719 12.9716 89.8991 12.2472 90.3537 11.6392C90.8139 11.0312 91.4588 10.5625 92.2884 10.233C93.1236 9.90341 94.1009 9.73864 95.2202 9.73864C96.8736 9.73864 98.1747 10.0881 99.1236 10.7869C100.078 11.4858 100.635 12.4375 100.794 13.642ZM110.342 9.90909V12.6364H102.458V9.90909H110.342ZM104.248 6.77273H107.879V18.9773C107.879 19.3125 107.93 19.5739 108.032 19.7614C108.134 19.9432 108.276 20.071 108.458 20.1449C108.646 20.2187 108.862 20.2557 109.106 20.2557C109.276 20.2557 109.447 20.2415 109.617 20.2131C109.788 20.179 109.918 20.1534 110.009 20.1364L110.58 22.8381C110.398 22.8949 110.143 22.9602 109.813 23.0341C109.484 23.1136 109.083 23.1619 108.612 23.179C107.737 23.2131 106.969 23.0966 106.31 22.8295C105.657 22.5625 105.148 22.1477 104.785 21.5852C104.421 21.0227 104.242 20.3125 104.248 19.4545V6.77273ZM118.532 23.2557C117.185 23.2557 116.026 22.983 115.055 22.4375C114.089 21.8864 113.344 21.108 112.822 20.1023C112.299 19.0909 112.038 17.8949 112.038 16.5142C112.038 15.1676 112.299 13.9858 112.822 12.9688C113.344 11.9517 114.08 11.1591 115.029 10.5909C115.984 10.0227 117.103 9.73864 118.387 9.73864C119.251 9.73864 120.055 9.87784 120.799 10.1562C121.549 10.429 122.202 10.8409 122.759 11.392C123.322 11.9432 123.759 12.6364 124.072 13.4716C124.384 14.3011 124.54 15.2727 124.54 16.3864V17.3835H113.487V15.1335H121.123C121.123 14.6108 121.009 14.1477 120.782 13.7443C120.555 13.3409 120.239 13.0256 119.836 12.7983C119.438 12.5653 118.975 12.4489 118.447 12.4489C117.896 12.4489 117.407 12.5767 116.981 12.8324C116.56 13.0824 116.231 13.4205 115.992 13.8466C115.754 14.267 115.631 14.7358 115.626 15.2528V17.392C115.626 18.0398 115.745 18.5994 115.984 19.071C116.228 19.5426 116.572 19.9062 117.015 20.1619C117.458 20.4176 117.984 20.5455 118.592 20.5455C118.995 20.5455 119.364 20.4886 119.7 20.375C120.035 20.2614 120.322 20.0909 120.56 19.8636C120.799 19.6364 120.981 19.358 121.106 19.0284L124.464 19.25C124.293 20.0568 123.944 20.7614 123.415 21.3636C122.893 21.9602 122.217 22.4261 121.387 22.7614C120.563 23.0909 119.612 23.2557 118.532 23.2557ZM130.54 15.4318V23H126.91V9.90909H130.37V12.2188H130.523C130.813 11.4574 131.299 10.8551 131.981 10.4119C132.663 9.96307 133.489 9.73864 134.461 9.73864C135.37 9.73864 136.163 9.9375 136.839 10.3352C137.515 10.733 138.04 11.3011 138.415 12.0398C138.79 12.7727 138.978 13.6477 138.978 14.6648V23H135.347V15.3125C135.353 14.5114 135.148 13.8864 134.734 13.4375C134.319 12.983 133.748 12.7557 133.021 12.7557C132.532 12.7557 132.1 12.8608 131.725 13.071C131.356 13.2812 131.066 13.5881 130.856 13.9915C130.651 14.3892 130.546 14.8693 130.54 15.4318ZM141.839 23V9.90909H145.47V23H141.839ZM143.663 8.22159C143.124 8.22159 142.661 8.04261 142.274 7.68466C141.893 7.32102 141.703 6.88636 141.703 6.38068C141.703 5.88068 141.893 5.4517 142.274 5.09375C142.661 4.73011 143.124 4.54829 143.663 4.54829C144.203 4.54829 144.663 4.73011 145.044 5.09375C145.43 5.4517 145.624 5.88068 145.624 6.38068C145.624 6.88636 145.43 7.32102 145.044 7.68466C144.663 8.04261 144.203 8.22159 143.663 8.22159ZM152.009 15.4318V23H148.379V9.90909H151.839V12.2188H151.992C152.282 11.4574 152.768 10.8551 153.45 10.4119C154.131 9.96307 154.958 9.73864 155.93 9.73864C156.839 9.73864 157.631 9.9375 158.308 10.3352C158.984 10.733 159.509 11.3011 159.884 12.0398C160.259 12.7727 160.447 13.6477 160.447 14.6648V23H156.816V15.3125C156.822 14.5114 156.617 13.8864 156.202 13.4375C155.788 12.983 155.217 12.7557 154.489 12.7557C154.001 12.7557 153.569 12.8608 153.194 13.071C152.825 13.2812 152.535 13.5881 152.325 13.9915C152.12 14.3892 152.015 14.8693 152.009 15.4318ZM169.206 28.1818C168.03 28.1818 167.021 28.0199 166.18 27.696C165.345 27.3778 164.68 26.9432 164.186 26.392C163.692 25.8409 163.371 25.2216 163.223 24.5341L166.581 24.0824C166.683 24.3438 166.845 24.5881 167.067 24.8153C167.288 25.0426 167.581 25.2244 167.945 25.3608C168.314 25.5028 168.763 25.5739 169.291 25.5739C170.081 25.5739 170.732 25.3807 171.243 24.9943C171.76 24.6136 172.018 23.9744 172.018 23.0767V20.6818H171.865C171.706 21.0455 171.467 21.3892 171.149 21.7131C170.831 22.0369 170.422 22.3011 169.922 22.5057C169.422 22.7102 168.825 22.8125 168.132 22.8125C167.149 22.8125 166.254 22.5852 165.447 22.1307C164.646 21.6705 164.007 20.9687 163.53 20.0256C163.058 19.0767 162.822 17.8778 162.822 16.429C162.822 14.946 163.064 13.7074 163.547 12.7131C164.03 11.7187 164.672 10.9744 165.473 10.4801C166.28 9.9858 167.163 9.73864 168.124 9.73864C168.857 9.73864 169.47 9.86364 169.964 10.1136C170.459 10.358 170.857 10.6648 171.158 11.0341C171.464 11.3977 171.7 11.7557 171.865 12.108H172.001V9.90909H175.607V23.1278C175.607 24.2415 175.334 25.1733 174.788 25.9233C174.243 26.6733 173.487 27.2358 172.521 27.6108C171.561 27.9915 170.456 28.1818 169.206 28.1818ZM169.283 20.0852C169.868 20.0852 170.362 19.9403 170.766 19.6506C171.175 19.3551 171.487 18.9347 171.703 18.3892C171.925 17.8381 172.036 17.179 172.036 16.4119C172.036 15.6449 171.928 14.9801 171.712 14.4176C171.496 13.8494 171.183 13.4091 170.774 13.0966C170.365 12.7841 169.868 12.6278 169.283 12.6278C168.686 12.6278 168.183 12.7898 167.774 13.1136C167.365 13.4318 167.055 13.875 166.845 14.4432C166.635 15.0114 166.53 15.6676 166.53 16.4119C166.53 17.1676 166.635 17.821 166.845 18.3722C167.061 18.9176 167.371 19.3409 167.774 19.642C168.183 19.9375 168.686 20.0852 169.283 20.0852Z" fill="#1677FF"/>
<path d="M25.898 6.06335C23.2889 4.79395 25.2458 0.986211 27.8549 2.25545C30.4641 3.5247 28.5072 7.33275 25.898 6.06335Z" fill="#1677FF"/>
<path d="M16.1137 27.6413C18.7229 28.9106 17.4182 32.7185 14.8092 32.0839C11.781 31.3473 12.8523 27.0067 15.8234 27.8246C15.9223 27.7599 16.0194 27.6987 16.1137 27.6413Z" fill="#1677FF"/>
<path d="M37.6391 31.4492C35.8536 33.7655 39.596 36.5264 41.5528 33.9878C43.2768 31.7514 39.596 28.9106 37.6391 31.4492Z" fill="#1677FF"/>
<path d="M23.2889 10.5059L25.898 6.06335M25.898 6.06335C23.2889 4.79395 25.2458 0.986211 27.8549 2.25545C30.4641 3.5247 28.5072 7.33275 25.898 6.06335ZM17.4183 22.5641L16.9291 24.4681L16.1137 27.6413M16.1137 27.6413C18.7229 28.9106 17.4182 32.7185 14.8092 32.0839C11.781 31.3473 12.8523 27.0067 15.8234 27.8246C15.9223 27.7599 16.0194 27.6987 16.1137 27.6413ZM24.5934 21.9295L37.6391 31.4492M37.6391 31.4492C35.8536 33.7655 39.596 36.5264 41.5528 33.9878C43.2768 31.7514 39.596 28.9106 37.6391 31.4492Z" stroke="white"/>
<path d="M85 12.5V21.5" stroke="#1677FF" stroke-width="3" stroke-linecap="round"/>
<path d="M85 9V9.25" stroke="#1677FF" stroke-width="2" stroke-linecap="round"/>
<path d="M85.5004 6C86.7504 6 88.0003 7.5 88.0003 8.5M85 4C87.4995 4 89.9997 6.5 89.9997 9" stroke="#1677FF" stroke-linecap="round"/>
</svg>
