<svg width="31" height="35" viewBox="0 0 31 35" fill="none" xmlns="http://www.w3.org/2000/svg">
<path d="M13.898 5.06335C11.2889 3.79395 13.2458 -0.0137887 15.8549 1.25545C18.4641 2.5247 16.5072 6.33275 13.898 5.06335Z" fill="#1677FF"/>
<path d="M4.11375 26.6413C6.72294 27.9106 5.41817 31.7185 2.80918 31.0839C-0.218963 30.3473 0.852348 26.0067 3.82338 26.8246C3.92226 26.7599 4.01941 26.6987 4.11375 26.6413Z" fill="#1677FF"/>
<path d="M25.6391 30.4492C23.8536 32.7655 27.596 35.5264 29.5528 32.9878C31.2768 30.7514 27.596 27.9106 25.6391 30.4492Z" fill="#1677FF"/>
<path d="M11.2889 9.5059L13.898 5.06335M13.898 5.06335C11.2889 3.79395 13.2458 -0.0137887 15.8549 1.25545C18.4641 2.5247 16.5072 6.33275 13.898 5.06335ZM5.41832 21.5641L4.92911 23.4681L4.11375 26.6413M4.11375 26.6413C6.72294 27.9106 5.41817 31.7185 2.80918 31.0839C-0.218963 30.3473 0.852348 26.0067 3.82338 26.8246C3.92226 26.7599 4.01941 26.6987 4.11375 26.6413ZM12.5934 20.9295L25.6391 30.4492M25.6391 30.4492C23.8536 32.7655 27.596 35.5264 29.5528 32.9878C31.2768 30.7514 27.596 27.9106 25.6391 30.4492Z" stroke="white"/>
<path d="M15.5 15.5C15.5 19.399 12.5579 22.5 9 22.5C5.44208 22.5 2.5 19.399 2.5 15.5C2.5 11.601 5.44208 8.5 9 8.5C12.5579 8.5 15.5 11.601 15.5 15.5Z" fill="#1677FF" stroke="white"/>
</svg>
